<?xml version="1.0" encoding="utf-8"?>
<!-- Generator: Adobe Illustrator 15.1.0, SVG Export Plug-In . SVG Version: 6.00 Build 0)  -->
<!DOCTYPE svg PUBLIC "-//W3C//DTD SVG 1.1//EN" "http://www.w3.org/Graphics/SVG/1.1/DTD/svg11.dtd">
<svg version="1.1" id="Ebene_1" xmlns="http://www.w3.org/2000/svg" xmlns:xlink="http://www.w3.org/1999/xlink" x="0px" y="0px"
	 width="294.8px" height="48.19px" viewBox="0 0 294.8 48.19" enable-background="new 0 0 294.8 48.19" xml:space="preserve">
<g>
	<g>
		<path fill="#3A3A39" d="M75.178,16.797c0-0.865,0.456-1.32,1.32-1.32h4.657c1.752,0,2.592,0.119,3.336,0.408
			c1.944,0.744,3.168,2.496,3.168,4.992c0,1.824-0.864,3.816-2.568,4.679v0.049c0,0,0.24,0.312,0.648,1.031l2.448,4.418
			c0.528,0.912,0.12,1.584-0.912,1.584h-1.824c-0.72,0-1.2-0.289-1.561-0.938l-2.544-4.848h-1.968v4.465
			c0,0.863-0.456,1.32-1.32,1.32h-1.561c-0.864,0-1.32-0.457-1.32-1.32V16.797z M81.202,23.253c1.344,0,2.184-0.744,2.184-2.112
			c0-0.863-0.216-1.512-1.008-1.824c-0.384-0.168-0.888-0.24-1.584-0.24h-1.416v4.177H81.202z"/>
		<path fill="#3A3A39" d="M92.65,16.797c0-0.865,0.456-1.32,1.32-1.32h1.56c0.864,0,1.32,0.455,1.32,1.32v9.529
			c0,1.799,1.176,2.76,2.976,2.76c1.8,0,2.977-0.961,2.977-2.76v-9.529c0-0.865,0.456-1.32,1.32-1.32h1.561
			c0.864,0,1.32,0.455,1.32,1.32v9.529c0,3.863-2.832,6.6-7.152,6.6c-4.369,0-7.201-2.736-7.201-6.6V16.797z"/>
		<path fill="#3A3A39" d="M112.545,16.797c0-0.865,0.456-1.32,1.32-1.32h4.993c3.432,0,5.833,1.535,5.833,4.488
			c0,1.439-0.696,2.904-1.992,3.648v0.048c1.968,0.6,2.688,2.352,2.688,3.864c0,3.744-3.12,5.113-6.528,5.113h-4.993
			c-0.864,0-1.32-0.457-1.32-1.32V16.797z M118.906,22.125c1.056,0,1.512-0.768,1.512-1.584c0-0.793-0.456-1.465-1.584-1.465h-2.088
			v3.049H118.906z M119.266,29.037c1.224,0,1.824-0.84,1.824-1.799c0-0.961-0.576-1.754-1.8-1.754h-2.544v3.553H119.266z"/>
		<path fill="#3A3A39" d="M133.282,25.605l-4.776-8.544c-0.528-0.912-0.12-1.584,0.912-1.584h1.896c0.744,0,1.224,0.312,1.536,0.984
			l1.488,3.144c0.552,1.177,1.032,2.472,1.032,2.472h0.048c0,0,0.48-1.295,1.032-2.472l1.464-3.144
			c0.312-0.673,0.792-0.984,1.536-0.984h1.896c1.032,0,1.44,0.672,0.912,1.584l-4.776,8.544v5.713c0,0.863-0.456,1.32-1.32,1.32
			h-1.56c-0.864,0-1.32-0.457-1.32-1.32V25.605z"/>
		<path fill="#3A3A39" d="M144.729,26.229V25.27c0-0.865,0.456-1.32,1.32-1.32h4.896c0.864,0,1.32,0.455,1.32,1.32v0.959
			c0,0.865-0.456,1.32-1.32,1.32h-4.896C145.186,27.549,144.729,27.094,144.729,26.229z"/>
		<path fill="#3A3A39" d="M157.496,16.797c0-0.865,0.457-1.32,1.32-1.32h4.776c5.4,0,8.856,3.145,8.856,8.545
			c0,5.4-3.456,8.617-8.856,8.617h-4.776c-0.863,0-1.32-0.457-1.32-1.32V16.797z M163.425,29.037c2.904,0,4.681-1.729,4.681-5.015
			c0-3.265-1.849-4.945-4.681-4.945h-1.729v9.96H163.425z"/>
		<path fill="#3A3A39" d="M184.448,15.188c5.329,0,8.978,3.841,8.978,8.762c0,5.041-3.648,8.976-8.978,8.976
			c-5.328,0-8.977-3.936-8.977-8.976C175.472,19.029,179.12,15.188,184.448,15.188z M184.448,29.086
			c2.713,0,4.633-2.209,4.633-5.136c0-2.809-1.92-4.921-4.633-4.921c-2.712,0-4.632,2.112-4.632,4.921
			C179.816,26.877,181.736,29.086,184.448,29.086z"/>
		<path fill="#3A3A39" d="M205.4,15.188c2.641,0,4.488,0.937,5.496,1.633c0.673,0.48,0.721,1.128,0.288,1.824l-0.6,0.984
			c-0.456,0.744-1.057,0.816-1.8,0.359c-0.793-0.455-1.921-0.96-3.192-0.96c-3.433,0-4.849,2.425-4.849,4.896
			c0,2.543,1.536,5.161,4.849,5.161c1.439,0,2.688-0.648,3.504-1.225c0.72-0.504,1.344-0.48,1.849,0.24l0.672,0.936
			c0.456,0.672,0.432,1.344-0.216,1.85c-1.08,0.84-3.097,2.039-6.001,2.039c-5.521,0-9.001-3.816-9.001-8.904
			C196.399,19.029,200.096,15.188,205.4,15.188z"/>
		<path fill="#3A3A39" d="M215.672,29.398l0.744-1.08c0.479-0.697,1.032-0.744,1.824-0.312c0.552,0.287,1.632,1.057,3.12,1.057
			c1.248,0,1.824-0.529,1.824-1.201c0-2.424-7.585-2.039-7.585-7.416c0-3.169,2.641-5.258,6.121-5.258
			c1.992,0,3.815,0.697,4.632,1.273c0.696,0.504,0.769,1.104,0.408,1.799l-0.576,1.129c-0.479,0.936-1.128,0.792-1.8,0.456
			c-0.792-0.384-1.584-0.792-2.713-0.792c-1.319,0-1.872,0.527-1.872,1.199c0,2.497,7.585,1.896,7.585,7.322
			c0,2.879-2.16,5.352-6.024,5.352c-2.4,0-4.536-0.984-5.448-1.703C215.407,30.814,215.048,30.285,215.672,29.398z"/>
		<path fill="#3A3A39" d="M230.191,30.021c0-0.863,0.456-1.32,1.32-1.32h1.296c0.864,0,1.32,0.457,1.32,1.32v1.297
			c0,0.863-0.456,1.32-1.32,1.32h-1.296c-0.864,0-1.32-0.457-1.32-1.32V30.021z"/>
		<path fill="#3A3A39" d="M245.433,15.188c2.64,0,4.488,0.937,5.496,1.633c0.672,0.48,0.72,1.128,0.288,1.824l-0.601,0.984
			c-0.456,0.744-1.056,0.816-1.8,0.359c-0.792-0.455-1.92-0.96-3.192-0.96c-3.432,0-4.849,2.425-4.849,4.896
			c0,2.543,1.536,5.161,4.849,5.161c1.44,0,2.688-0.648,3.505-1.225c0.72-0.504,1.344-0.48,1.848,0.24l0.672,0.936
			c0.456,0.672,0.433,1.344-0.216,1.85c-1.08,0.84-3.096,2.039-6,2.039c-5.521,0-9.001-3.816-9.001-8.904
			C236.432,19.029,240.128,15.188,245.433,15.188z"/>
		<path fill="#3A3A39" d="M263.024,15.188c5.328,0,8.977,3.841,8.977,8.762c0,5.041-3.648,8.976-8.977,8.976
			s-8.977-3.936-8.977-8.976C254.048,19.029,257.696,15.188,263.024,15.188z M263.024,29.086c2.712,0,4.633-2.209,4.633-5.136
			c0-2.809-1.921-4.921-4.633-4.921s-4.633,2.112-4.633,4.921C258.392,26.877,260.312,29.086,263.024,29.086z"/>
		<path fill="#3A3A39" d="M276.199,16.749c0.072-0.84,0.528-1.271,1.368-1.271h2.16c0.769,0,1.248,0.336,1.488,1.08l2.137,6.168
			c0.384,1.104,0.864,2.832,0.864,2.832h0.048c0,0,0.479-1.727,0.863-2.832l2.137-6.168c0.24-0.744,0.72-1.08,1.488-1.08h2.16
			c0.84,0,1.296,0.432,1.368,1.271l1.176,14.521c0.072,0.865-0.384,1.369-1.248,1.369h-1.561c-0.84,0-1.296-0.434-1.368-1.273
			l-0.432-6.456c-0.096-1.296,0-2.88,0-2.88h-0.048c0,0-0.576,1.8-0.96,2.88l-1.416,3.913c-0.265,0.719-0.744,1.055-1.513,1.055
			h-1.344c-0.769,0-1.248-0.336-1.513-1.055l-1.416-3.913c-0.384-1.08-0.96-2.88-0.96-2.88h-0.048c0,0,0.096,1.584,0,2.88
			l-0.432,6.456c-0.072,0.84-0.528,1.273-1.368,1.273h-1.584c-0.864,0-1.32-0.504-1.248-1.369L276.199,16.749z"/>
	</g>
	<g>
		<polygon fill="#DC030E" points="43.331,14.502 43.331,1.271 14.528,1.271 1.335,14.502 1.391,14.558 28.949,46.92 56.508,14.558 
			56.562,14.502 		"/>
		<polygon fill="#F28F8D" points="56.562,14.502 43.331,1.271 43.331,14.502 		"/>
	</g>
</g>
</svg>
