<?xml version="1.0" encoding="utf-8"?>
<!-- Generator: Adobe Illustrator 17.1.0, SVG Export Plug-In . SVG Version: 6.00 Build 0)  -->
<!DOCTYPE svg PUBLIC "-//W3C//DTD SVG 1.1//EN" "http://www.w3.org/Graphics/SVG/1.1/DTD/svg11.dtd">
<svg version="1.1" xmlns="http://www.w3.org/2000/svg" xmlns:xlink="http://www.w3.org/1999/xlink" x="0px" y="0px"
	 viewBox="0 0 215.4 48.2" enable-background="new 0 0 215.4 48.2" xml:space="preserve">
<g id="Ebene_1">
</g>
<g id="Ebene_2">
	<g>
		<g>
			<path fill="#3A3A39" d="M74.2,16.8c0-0.9,0.5-1.3,1.3-1.3h4.7c1.8,0,2.6,0.1,3.3,0.4c1.9,0.7,3.2,2.5,3.2,5
				c0,1.8-0.9,3.8-2.6,4.7v0c0,0,0.2,0.3,0.6,1l2.4,4.4c0.5,0.9,0.1,1.6-0.9,1.6h-1.8c-0.7,0-1.2-0.3-1.6-0.9l-2.5-4.8h-2v4.5
				c0,0.9-0.5,1.3-1.3,1.3h-1.6c-0.9,0-1.3-0.5-1.3-1.3V16.8z M80.3,23.3c1.3,0,2.2-0.7,2.2-2.1c0-0.9-0.2-1.5-1-1.8
				c-0.4-0.2-0.9-0.2-1.6-0.2h-1.4v4.2H80.3z"/>
			<path fill="#3A3A39" d="M91.7,16.8c0-0.9,0.5-1.3,1.3-1.3h1.6c0.9,0,1.3,0.5,1.3,1.3v9.5c0,1.8,1.2,2.8,3,2.8c1.8,0,3-1,3-2.8
				v-9.5c0-0.9,0.5-1.3,1.3-1.3h1.6c0.9,0,1.3,0.5,1.3,1.3v9.5c0,3.9-2.8,6.6-7.2,6.6c-4.4,0-7.2-2.7-7.2-6.6V16.8z"/>
			<path fill="#3A3A39" d="M111,16.8c0-0.9,0.5-1.3,1.3-1.3h5c3.4,0,5.8,1.5,5.8,4.5c0,1.4-0.7,2.9-2,3.6v0c2,0.6,2.7,2.4,2.7,3.9
				c0,3.7-3.1,5.1-6.5,5.1h-5c-0.9,0-1.3-0.5-1.3-1.3V16.8z M117.4,22.1c1.1,0,1.5-0.8,1.5-1.6c0-0.8-0.5-1.5-1.6-1.5h-2.1v3H117.4z
				 M117.7,29c1.2,0,1.8-0.8,1.8-1.8s-0.6-1.8-1.8-1.8h-2.5V29H117.7z"/>
			<path fill="#3A3A39" d="M131.7,25.6l-4.8-8.5c-0.5-0.9-0.1-1.6,0.9-1.6h1.9c0.7,0,1.2,0.3,1.5,1l1.5,3.1c0.6,1.2,1,2.5,1,2.5h0
				c0,0,0.5-1.3,1-2.5l1.5-3.1c0.3-0.7,0.8-1,1.5-1h1.9c1,0,1.4,0.7,0.9,1.6l-4.8,8.5v5.7c0,0.9-0.5,1.3-1.3,1.3h-1.6
				c-0.9,0-1.3-0.5-1.3-1.3V25.6z"/>
			<path fill="#3A3A39" d="M144.6,16.8c0-0.9,0.5-1.3,1.3-1.3h4.8c5.4,0,8.9,3.1,8.9,8.5s-3.5,8.6-8.9,8.6h-4.8
				c-0.9,0-1.3-0.5-1.3-1.3V16.8z M150.6,29c2.9,0,4.7-1.7,4.7-5c0-3.3-1.8-4.9-4.7-4.9h-1.7v10H150.6z"/>
			<path fill="#3A3A39" d="M172.1,15.2c5.3,0,9,3.8,9,8.8c0,5-3.6,9-9,9s-9-3.9-9-9C163.1,19,166.7,15.2,172.1,15.2z M172.1,29.1
				c2.7,0,4.6-2.2,4.6-5.1c0-2.8-1.9-4.9-4.6-4.9s-4.6,2.1-4.6,4.9C167.4,26.9,169.4,29.1,172.1,29.1z"/>
			<path fill="#3A3A39" d="M192.5,15.2c2.6,0,4.5,0.9,5.5,1.6c0.7,0.5,0.7,1.1,0.3,1.8l-0.6,1c-0.5,0.7-1.1,0.8-1.8,0.4
				c-0.8-0.5-1.9-1-3.2-1c-3.4,0-4.8,2.4-4.8,4.9c0,2.5,1.5,5.2,4.8,5.2c1.4,0,2.7-0.6,3.5-1.2c0.7-0.5,1.3-0.5,1.8,0.2l0.7,0.9
				c0.5,0.7,0.4,1.3-0.2,1.8c-1.1,0.8-3.1,2-6,2c-5.5,0-9-3.8-9-8.9C183.5,19,187.2,15.2,192.5,15.2z"/>
			<path fill="#3A3A39" d="M202.3,29.4l0.7-1.1c0.5-0.7,1-0.7,1.8-0.3c0.6,0.3,1.6,1.1,3.1,1.1c1.2,0,1.8-0.5,1.8-1.2
				c0-2.4-7.6-2-7.6-7.4c0-3.2,2.6-5.3,6.1-5.3c2,0,3.8,0.7,4.6,1.3c0.7,0.5,0.8,1.1,0.4,1.8l-0.6,1.1c-0.5,0.9-1.1,0.8-1.8,0.5
				c-0.8-0.4-1.6-0.8-2.7-0.8c-1.3,0-1.9,0.5-1.9,1.2c0,2.5,7.6,1.9,7.6,7.3c0,2.9-2.2,5.4-6,5.4c-2.4,0-4.5-1-5.4-1.7
				C202.1,30.8,201.7,30.3,202.3,29.4z"/>
		</g>
		<g>
			<polygon fill="#DC030E" points="43.4,1.3 14.6,1.3 1.4,14.5 1.5,14.6 29,46.9 56.6,14.6 56.6,14.5 			"/>
		</g>
		<g>
			<polygon fill="#F28F8D" points="56.6,14.5 43.4,14.5 43.4,1.3 			"/>
		</g>
	</g>
</g>
</svg>
