<?xml version="1.0" encoding="utf-8"?>
<!-- Generator: Adobe Illustrator 15.1.0, SVG Export Plug-In . SVG Version: 6.00 Build 0)  -->
<!DOCTYPE svg PUBLIC "-//W3C//DTD SVG 1.1//EN" "http://www.w3.org/Graphics/SVG/1.1/DTD/svg11.dtd">
<svg version="1.1" id="Ebene_1" xmlns="http://www.w3.org/2000/svg" xmlns:xlink="http://www.w3.org/1999/xlink" x="0px" y="0px"
	 width="294.8px" height="48.19px" viewBox="0 0 294.8 48.19" enable-background="new 0 0 294.8 48.19" xml:space="preserve">
<g>
	<g>
		<path fill="#3A3A39" d="M76.441,16.797c0-0.864,0.456-1.32,1.32-1.32h4.656c1.752,0,2.593,0.12,3.336,0.408
			c1.944,0.744,3.169,2.496,3.169,4.992c0,1.824-0.864,3.816-2.568,4.681v0.047c0,0,0.24,0.312,0.648,1.033l2.447,4.416
			c0.528,0.912,0.12,1.584-0.911,1.584h-1.824c-0.721,0-1.2-0.287-1.561-0.936l-2.544-4.85h-1.969v4.465
			c0,0.865-0.456,1.32-1.319,1.32h-1.561c-0.864,0-1.32-0.455-1.32-1.32V16.797z M82.466,23.253c1.345,0,2.185-0.744,2.185-2.111
			c0-0.864-0.216-1.513-1.008-1.824c-0.385-0.168-0.889-0.24-1.585-0.24h-1.416v4.176H82.466z"/>
		<path fill="#3A3A39" d="M93.914,16.797c0-0.864,0.456-1.32,1.319-1.32h1.561c0.864,0,1.32,0.456,1.32,1.32v9.529
			c0,1.801,1.176,2.76,2.976,2.76c1.801,0,2.977-0.959,2.977-2.76v-9.529c0-0.864,0.456-1.32,1.32-1.32h1.561
			c0.863,0,1.319,0.456,1.319,1.32v9.529c0,3.865-2.832,6.602-7.152,6.602c-4.368,0-7.2-2.736-7.2-6.602V16.797z"/>
		<path fill="#3A3A39" d="M113.81,16.797c0-0.864,0.456-1.32,1.319-1.32h4.993c3.432,0,5.832,1.536,5.832,4.489
			c0,1.439-0.696,2.903-1.992,3.647v0.048c1.969,0.6,2.688,2.352,2.688,3.866c0,3.744-3.12,5.111-6.528,5.111h-4.993
			c-0.863,0-1.319-0.455-1.319-1.32V16.797z M120.17,22.126c1.056,0,1.512-0.769,1.512-1.585c0-0.792-0.456-1.464-1.584-1.464
			h-2.088v3.049H120.17z M120.53,29.039c1.224,0,1.823-0.84,1.823-1.801c0-0.959-0.575-1.752-1.8-1.752h-2.544v3.553H120.53z"/>
		<path fill="#3A3A39" d="M134.546,25.605l-4.776-8.543c-0.528-0.912-0.12-1.585,0.912-1.585h1.896c0.744,0,1.225,0.312,1.536,0.984
			l1.488,3.144c0.553,1.177,1.032,2.473,1.032,2.473h0.048c0,0,0.48-1.296,1.032-2.473l1.465-3.144
			c0.312-0.673,0.792-0.984,1.535-0.984h1.896c1.032,0,1.44,0.673,0.912,1.585l-4.776,8.543v5.713c0,0.865-0.456,1.32-1.32,1.32
			h-1.56c-0.864,0-1.32-0.455-1.32-1.32V25.605z"/>
		<path fill="#3A3A39" d="M145.993,26.23V25.27c0-0.864,0.457-1.32,1.32-1.32h4.896c0.864,0,1.32,0.456,1.32,1.32v0.961
			c0,0.863-0.456,1.32-1.32,1.32h-4.896C146.45,27.551,145.993,27.094,145.993,26.23z"/>
		<path fill="#3A3A39" d="M158.761,16.797c0-0.864,0.457-1.32,1.32-1.32h4.776c5.401,0,8.856,3.145,8.856,8.545
			c0,5.4-3.455,8.617-8.856,8.617h-4.776c-0.863,0-1.32-0.455-1.32-1.32V16.797z M164.689,29.039c2.904,0,4.681-1.729,4.681-5.017
			c0-3.265-1.848-4.944-4.681-4.944h-1.728v9.961H164.689z"/>
		<path fill="#3A3A39" d="M185.714,15.189c5.328,0,8.977,3.84,8.977,8.761c0,5.041-3.648,8.978-8.977,8.978
			s-8.977-3.938-8.977-8.978C176.737,19.029,180.386,15.189,185.714,15.189z M185.714,29.086c2.712,0,4.633-2.207,4.633-5.136
			c0-2.808-1.921-4.921-4.633-4.921c-2.713,0-4.633,2.113-4.633,4.921C181.081,26.879,183.001,29.086,185.714,29.086z"/>
		<path fill="#3A3A39" d="M206.665,15.189c2.641,0,4.488,0.936,5.496,1.633c0.673,0.479,0.721,1.127,0.289,1.824l-0.601,0.983
			c-0.456,0.744-1.056,0.816-1.8,0.36c-0.793-0.456-1.92-0.961-3.192-0.961c-3.433,0-4.849,2.425-4.849,4.896
			c0,2.545,1.536,5.161,4.849,5.161c1.44,0,2.688-0.646,3.505-1.223c0.719-0.504,1.344-0.48,1.848,0.238l0.672,0.938
			c0.456,0.672,0.432,1.344-0.216,1.848c-1.08,0.84-3.097,2.041-6.001,2.041c-5.52,0-9-3.816-9-8.906
			C197.665,19.029,201.36,15.189,206.665,15.189z"/>
		<path fill="#3A3A39" d="M216.937,29.398l0.744-1.08c0.48-0.695,1.032-0.744,1.824-0.312c0.552,0.289,1.633,1.057,3.12,1.057
			c1.248,0,1.824-0.527,1.824-1.199c0-2.426-7.585-2.041-7.585-7.417c0-3.169,2.641-5.257,6.121-5.257
			c1.992,0,3.816,0.696,4.633,1.272c0.695,0.504,0.768,1.104,0.407,1.8l-0.575,1.129c-0.48,0.936-1.129,0.791-1.801,0.455
			c-0.792-0.384-1.584-0.791-2.713-0.791c-1.319,0-1.871,0.527-1.871,1.199c0,2.496,7.584,1.896,7.584,7.321
			c0,2.881-2.16,5.354-6.024,5.354c-2.399,0-4.536-0.984-5.448-1.705C216.673,30.814,216.312,30.287,216.937,29.398z"/>
		<path fill="#3A3A39" d="M231.216,30.023c0-0.865,0.457-1.32,1.32-1.32h1.297c0.863,0,1.319,0.455,1.319,1.32v1.295
			c0,0.865-0.456,1.32-1.319,1.32h-1.297c-0.863,0-1.32-0.455-1.32-1.32V30.023z"/>
		<path fill="#3A3A39" d="M246.673,15.189c5.328,0,8.977,3.84,8.977,8.761c0,5.041-3.648,8.978-8.977,8.978
			s-8.977-3.938-8.977-8.978C237.696,19.029,241.345,15.189,246.673,15.189z M246.673,29.086c2.713,0,4.633-2.207,4.633-5.136
			c0-2.808-1.92-4.921-4.633-4.921c-2.712,0-4.633,2.113-4.633,4.921C242.04,26.879,243.961,29.086,246.673,29.086z"/>
		<path fill="#3A3A39" d="M259.753,16.797c0-0.864,0.455-1.32,1.319-1.32h4.657c1.752,0,2.592,0.12,3.336,0.408
			c1.943,0.744,3.168,2.496,3.168,4.992c0,1.824-0.864,3.816-2.568,4.681v0.047c0,0,0.24,0.312,0.648,1.033l2.447,4.416
			c0.529,0.912,0.121,1.584-0.911,1.584h-1.824c-0.72,0-1.2-0.287-1.561-0.936l-2.544-4.85h-1.969v4.465
			c0,0.865-0.455,1.32-1.319,1.32h-1.561c-0.864,0-1.319-0.455-1.319-1.32V16.797z M265.776,23.253c1.345,0,2.185-0.744,2.185-2.111
			c0-0.864-0.216-1.513-1.008-1.824c-0.384-0.168-0.888-0.24-1.585-0.24h-1.416v4.176H265.776z"/>
		<path fill="#3A3A39" d="M284.761,15.189c2.736,0,4.872,1.008,5.568,1.512c0.721,0.529,0.792,1.08,0.336,1.824l-0.624,0.984
			c-0.456,0.721-1.032,0.769-1.824,0.36s-1.704-0.841-3.192-0.841c-3.432,0-4.944,2.305-4.944,4.896
			c0,3.168,2.257,5.161,4.872,5.161c2.449,0,3.529-1.391,3.529-1.391v-1.178h-1.104c-0.864,0-1.32-0.455-1.32-1.318v-0.938
			c0-0.863,0.456-1.319,1.32-1.319h3.505c0.863,0,1.319,0.456,1.319,1.319v7.057c0,0.865-0.456,1.32-1.319,1.32h-0.793
			c-0.863,0-1.32-0.455-1.32-1.031v-0.049c0-0.145,0.024-0.24,0.024-0.24h-0.048c0,0-1.512,1.609-4.561,1.609
			c-4.416,0-8.449-3.361-8.449-8.762C275.735,18.933,279.505,15.189,284.761,15.189z"/>
	</g>
	<g>
		<polygon fill="#DC030E" points="44.595,1.271 15.792,1.271 2.599,14.503 2.654,14.558 30.213,46.92 57.771,14.558 57.826,14.503 
					"/>
	</g>
	<g>
		<polygon fill="#F28F8D" points="57.826,14.503 44.595,14.503 44.595,1.271 		"/>
	</g>
</g>
</svg>
