<?xml version="1.0" encoding="utf-8"?>
<!-- Generator: Adobe Illustrator 15.1.0, SVG Export Plug-In . SVG Version: 6.00 Build 0)  -->
<!DOCTYPE svg PUBLIC "-//W3C//DTD SVG 1.1//EN" "http://www.w3.org/Graphics/SVG/1.1/DTD/svg11.dtd">
<svg version="1.1" id="Ebene_1" xmlns="http://www.w3.org/2000/svg" xmlns:xlink="http://www.w3.org/1999/xlink" x="0px" y="0px"
	 width="226.771px" height="48.19px" viewBox="0 0 226.771 48.19" enable-background="new 0 0 226.771 48.19" xml:space="preserve">
<g>
	<g>
		<path fill="#3A3A39" d="M75.348,16.797c0-0.864,0.455-1.32,1.319-1.32h4.657c1.752,0,2.592,0.12,3.336,0.408
			c1.943,0.744,3.168,2.496,3.168,4.992c0,1.824-0.864,3.816-2.568,4.681v0.048c0,0,0.24,0.312,0.648,1.032l2.447,4.417
			c0.529,0.912,0.121,1.584-0.911,1.584H85.62c-0.72,0-1.2-0.289-1.561-0.937l-2.544-4.849h-1.969v4.465
			c0,0.863-0.455,1.32-1.319,1.32h-1.561c-0.864,0-1.319-0.457-1.319-1.32V16.797z M81.371,23.253c1.345,0,2.185-0.744,2.185-2.112
			c0-0.864-0.216-1.512-1.008-1.824c-0.384-0.168-0.888-0.24-1.585-0.24h-1.416v4.176H81.371z"/>
		<path fill="#3A3A39" d="M92.819,16.797c0-0.864,0.456-1.32,1.319-1.32h1.561c0.864,0,1.32,0.456,1.32,1.32v9.529
			c0,1.8,1.176,2.76,2.977,2.76c1.8,0,2.977-0.96,2.977-2.76v-9.529c0-0.864,0.455-1.32,1.319-1.32h1.561
			c0.864,0,1.319,0.456,1.319,1.32v9.529c0,3.863-2.832,6.6-7.152,6.6c-4.368,0-7.2-2.736-7.2-6.6V16.797z"/>
		<path fill="#3A3A39" d="M112.715,16.797c0-0.864,0.456-1.32,1.32-1.32h4.992c3.432,0,5.832,1.536,5.832,4.489
			c0,1.44-0.695,2.904-1.992,3.648v0.048c1.969,0.6,2.688,2.352,2.688,3.864c0,3.744-3.12,5.113-6.528,5.113h-4.992
			c-0.864,0-1.32-0.457-1.32-1.32V16.797z M119.075,22.125c1.056,0,1.513-0.768,1.513-1.584c0-0.792-0.457-1.464-1.584-1.464h-2.089
			v3.048H119.075z M119.435,29.038c1.224,0,1.824-0.841,1.824-1.8c0-0.961-0.576-1.753-1.801-1.753h-2.544v3.553H119.435z"/>
		<path fill="#3A3A39" d="M133.451,25.605l-4.776-8.544c-0.528-0.912-0.12-1.584,0.912-1.584h1.896c0.744,0,1.225,0.312,1.537,0.984
			l1.488,3.144c0.552,1.176,1.031,2.472,1.031,2.472h0.049c0,0,0.479-1.296,1.031-2.472l1.465-3.144
			c0.312-0.672,0.792-0.984,1.535-0.984h1.896c1.032,0,1.44,0.672,0.912,1.584l-4.775,8.544v5.713c0,0.863-0.457,1.32-1.32,1.32
			h-1.561c-0.864,0-1.32-0.457-1.32-1.32V25.605z"/>
		<path fill="#3A3A39" d="M156.178,16.797c0-0.864,0.457-1.32,1.32-1.32h4.777c5.4,0,8.855,3.145,8.855,8.545
			s-3.455,8.617-8.855,8.617h-4.777c-0.863,0-1.32-0.457-1.32-1.32V16.797z M162.107,29.038c2.904,0,4.68-1.729,4.68-5.017
			c0-3.264-1.848-4.944-4.68-4.944h-1.729v9.961H162.107z"/>
		<path fill="#3A3A39" d="M182.65,15.188c5.328,0,8.977,3.84,8.977,8.761c0,5.041-3.648,8.977-8.977,8.977s-8.977-3.936-8.977-8.977
			C173.674,19.029,177.322,15.188,182.65,15.188z M182.65,29.086c2.713,0,4.633-2.209,4.633-5.137c0-2.808-1.92-4.92-4.633-4.92
			c-2.711,0-4.633,2.112-4.633,4.92C178.018,26.877,179.939,29.086,182.65,29.086z"/>
		<path fill="#3A3A39" d="M203.123,15.188c2.641,0,4.488,0.936,5.496,1.632c0.672,0.48,0.721,1.128,0.287,1.824l-0.6,0.984
			c-0.455,0.744-1.057,0.816-1.799,0.36c-0.793-0.456-1.922-0.96-3.193-0.96c-3.432,0-4.848,2.424-4.848,4.896
			c0,2.544,1.535,5.161,4.848,5.161c1.439,0,2.688-0.648,3.504-1.225c0.721-0.504,1.344-0.479,1.85,0.24l0.672,0.937
			c0.455,0.672,0.432,1.344-0.217,1.849c-1.08,0.84-3.096,2.039-6,2.039c-5.521,0-9.002-3.816-9.002-8.904
			C194.121,19.029,197.818,15.188,203.123,15.188z"/>
		<path fill="#3A3A39" d="M212.555,29.398l0.744-1.08c0.479-0.697,1.031-0.744,1.824-0.312c0.551,0.288,1.631,1.057,3.119,1.057
			c1.248,0,1.824-0.529,1.824-1.201c0-2.424-7.584-2.039-7.584-7.416c0-3.168,2.641-5.257,6.121-5.257
			c1.992,0,3.814,0.696,4.631,1.272c0.697,0.504,0.77,1.104,0.408,1.8l-0.576,1.128c-0.48,0.936-1.127,0.792-1.799,0.456
			c-0.793-0.384-1.584-0.792-2.713-0.792c-1.32,0-1.873,0.528-1.873,1.2c0,2.497,7.586,1.896,7.586,7.321
			c0,2.88-2.16,5.352-6.025,5.352c-2.4,0-4.535-0.984-5.447-1.703C212.289,30.814,211.93,30.286,212.555,29.398z"/>
	</g>
	<g>
		<polygon fill="#DC030E" points="44.5,1.271 15.698,1.271 2.504,14.502 2.56,14.558 30.119,46.92 57.677,14.558 57.732,14.502 		
			"/>
	</g>
	<g>
		<polygon fill="#F28F8D" points="57.732,14.502 44.5,14.502 44.5,1.271 		"/>
	</g>
</g>
</svg>
